<?xml version="1.0" encoding="utf-8"?><svg viewBox="0 0 25 25" xmlns="http://www.w3.org/2000/svg" xmlns:xlink="http://www.w3.org/1999/xlink"><style>:root>svg{display:none}:root>svg:target{display:block}</style><svg viewBox="0 0 25 25" id="instagramm" xmlns="http://www.w3.org/2000/svg"><path d="M12.5 0C9.105 0 8.68.014 7.346.075c-1.33.06-2.239.272-3.034.581-.822.32-1.52.747-2.214 1.442A6.126 6.126 0 00.656 4.312c-.309.795-.52 1.704-.58 3.034C.013 8.68 0 9.106 0 12.5c0 3.395.014 3.82.075 5.154.06 1.33.272 2.239.581 3.034.32.822.747 1.519 1.442 2.214a6.127 6.127 0 002.214 1.442c.795.309 1.704.52 3.034.58 1.334.062 1.76.076 5.154.076 3.395 0 3.82-.014 5.154-.075 1.33-.06 2.239-.272 3.034-.581a6.128 6.128 0 002.214-1.442 6.128 6.128 0 001.442-2.214c.309-.795.52-1.704.58-3.034.062-1.334.076-1.76.076-5.154 0-3.395-.014-3.82-.075-5.154-.06-1.33-.272-2.239-.581-3.034a6.127 6.127 0 00-1.442-2.214A6.129 6.129 0 0020.688.656c-.795-.309-1.704-.52-3.034-.58C16.32.013 15.894 0 12.5 0zm0 2.252c3.338 0 3.733.013 5.051.073 1.219.056 1.88.26 2.321.43.584.227 1 .498 1.437.936.438.437.709.853.935 1.437.172.44.375 1.102.43 2.32.061 1.319.074 1.714.074 5.052 0 3.338-.013 3.733-.073 5.051-.056 1.219-.26 1.88-.43 2.321-.227.584-.498 1-.936 1.437a3.873 3.873 0 01-1.437.935c-.44.172-1.102.375-2.32.43-1.319.061-1.714.074-5.052.074-3.338 0-3.733-.013-5.051-.073-1.219-.056-1.88-.26-2.321-.43-.584-.227-1-.498-1.437-.936a3.873 3.873 0 01-.935-1.437c-.172-.44-.375-1.102-.43-2.32-.061-1.319-.074-1.714-.074-5.052 0-3.338.013-3.733.073-5.051.056-1.219.26-1.88.43-2.321.227-.584.498-1 .936-1.437a3.873 3.873 0 011.437-.935c.44-.172 1.102-.375 2.32-.43 1.319-.061 1.714-.074 5.052-.074"/><path d="M12.5 16.666a4.167 4.167 0 110-8.333 4.167 4.167 0 010 8.333zm0-10.585a6.419 6.419 0 100 12.837 6.419 6.419 0 000-12.837zm8.173-.254a1.5 1.5 0 11-3 0 1.5 1.5 0 013 0"/></svg><svg viewBox="0 0 25 25" id="phone" xmlns="http://www.w3.org/2000/svg"><path d="M3.993 4.167H8.67l1.507 3.768L7.755 9.55c-.29.193-.463.518-.463.867.002.097 0 0 0 0v.022a2.12 2.12 0 00.006.14c.006.086.016.202.037.343.04.283.118.67.27 1.126.306.916.906 2.103 2.075 3.272 1.169 1.169 2.356 1.769 3.272 2.074.456.153.843.23 1.126.271a4.603 4.603 0 00.483.043H14.582s.116-.006.001 0c.395 0 .755-.223.932-.576l.698-1.395 4.62.77v4.5c-2.199.318-8.138.632-12.805-4.035S3.675 6.366 3.993 4.167zm5.459 6.756l1.88-1.254a2.083 2.083 0 00.78-2.507l-1.508-3.77A2.083 2.083 0 008.67 2.084H3.938c-.946 0-1.837.658-1.992 1.685C1.592 6.104 1.11 13 6.556 18.445c5.443 5.444 12.34 4.963 14.676 4.61 1.027-.156 1.685-1.047 1.685-1.993v-4.555a2.083 2.083 0 00-1.741-2.055l-4.62-.77a2.083 2.083 0 00-2.207 1.123l-.36.722a4.858 4.858 0 01-.378-.109c-.647-.215-1.543-.657-2.458-1.571-.914-.915-1.356-1.812-1.571-2.458a4.771 4.771 0 01-.13-.466z"/></svg><svg viewBox="3.5 3.5 25 25" fill-rule="evenodd" id="whatsapp" xmlns="http://www.w3.org/2000/svg"><path d="M24.504 7.504A11.875 11.875 0 0016.05 4C9.465 4 4.1 9.36 4.1 15.945a11.882 11.882 0 001.594 5.973L4 28.109l6.336-1.664a11.958 11.958 0 005.71 1.457h.005c6.586 0 11.945-5.359 11.949-11.949 0-3.191-1.242-6.191-3.496-8.45zM16.05 25.883h-.004a9.93 9.93 0 01-5.055-1.383l-.363-.215-3.762.985 1.004-3.665-.234-.375a9.904 9.904 0 01-1.52-5.285c0-5.472 4.457-9.925 9.938-9.925a9.863 9.863 0 017.02 2.91 9.875 9.875 0 012.905 7.023c0 5.477-4.457 9.93-9.93 9.93zm5.445-7.438c-.297-.148-1.766-.87-2.039-.968-.273-.102-.473-.149-.672.148-.2.3-.77.973-.945 1.172-.172.195-.348.223-.645.074-.3-.148-1.261-.465-2.402-1.484-.887-.79-1.488-1.77-1.66-2.067-.176-.3-.02-.46.129-.61.136-.132.3-.347.449-.523.148-.171.2-.296.3-.496.098-.199.048-.375-.027-.523-.074-.148-.671-1.621-.921-2.219-.243-.582-.489-.5-.672-.511-.172-.008-.371-.008-.57-.008-.2 0-.524.074-.798.375-.273.297-1.043 1.02-1.043 2.488 0 1.469 1.07 2.89 1.22 3.09.148.195 2.105 3.21 5.1 4.504.712.308 1.266.492 1.7.629.715.226 1.367.195 1.883.12.574-.085 1.765-.722 2.015-1.421.247-.695.247-1.293.172-1.418-.074-.125-.273-.2-.574-.352z"/></svg></svg>