<svg width="25" height="25" viewBox="0 0 25 25" fill="none" xmlns="http://www.w3.org/2000/svg">
<path d="M3.9927 4.16659H8.66973L10.1772 7.93537L7.75549 9.54987C7.4657 9.74306 7.29163 10.0683 7.29163 10.4166C7.29428 10.5141 7.29164 10.4176 7.29164 10.4176L7.29164 10.4187L7.29164 10.4211L7.29168 10.4263L7.29183 10.4392C7.29198 10.4488 7.29224 10.4604 7.29268 10.4741C7.29357 10.5014 7.29516 10.5367 7.29801 10.5795C7.30371 10.665 7.31446 10.7806 7.33466 10.922C7.37503 11.2046 7.45338 11.5917 7.60551 12.0481C7.91096 12.9644 8.51115 14.1509 9.68007 15.3198C10.849 16.4887 12.0355 17.0889 12.9518 17.3944C13.4082 17.5465 13.7953 17.6249 14.0779 17.6652C14.2193 17.6854 14.3349 17.6962 14.4204 17.7019C14.4632 17.7047 14.4985 17.7063 14.5258 17.7072C14.5395 17.7076 14.5511 17.7079 14.5607 17.7081L14.5736 17.7082L14.5788 17.7082L14.5812 17.7082L14.5823 17.7083C14.5823 17.7083 14.6985 17.7019 14.5833 17.7083C14.9779 17.7083 15.3385 17.4853 15.515 17.1324L16.2126 15.7372L20.8333 16.5073V21.0072C18.6342 21.3252 12.6952 21.6387 8.0282 16.9717C3.36123 12.3047 3.67468 6.36565 3.9927 4.16659ZM9.45168 10.9229L11.3329 9.6688C12.1526 9.12232 12.4775 8.07635 12.1116 7.16164L10.6041 3.39285C10.2877 2.6019 9.52161 2.08325 8.66973 2.08325H3.93828C2.99191 2.08325 2.1011 2.74071 1.94574 3.76753C1.59229 6.10357 1.1112 13.001 6.55507 18.4448C11.9989 23.8887 18.8963 23.4076 21.2324 23.0541C22.2592 22.8988 22.9166 22.008 22.9166 21.0616V16.5073C22.9166 15.4889 22.1804 14.6198 21.1758 14.4524L16.5551 13.6822C15.6529 13.5319 14.7582 13.9875 14.3492 14.8055L13.9883 15.5274C13.8748 15.4996 13.7482 15.4638 13.6106 15.418C12.9645 15.2026 12.0676 14.7611 11.1532 13.8467C10.2388 12.9323 9.79731 12.0354 9.58193 11.3893C9.52373 11.2147 9.48183 11.0577 9.45168 10.9229Z" fill="white"/>
</svg>
